<svg width="83" height="26" viewBox="0 0 83 26" fill="none" xmlns="http://www.w3.org/2000/svg">
<path d="M32.3259 15.7533H31.0203V9.75772H33.8634C34.1383 9.75772 34.3874 9.80351 34.6108 9.89516C34.8342 9.98673 35.0231 10.1185 35.1777 10.2902C35.338 10.4563 35.4611 10.6567 35.547 10.8915C35.633 11.1263 35.6759 11.3868 35.6759 11.6732C35.6759 12.0797 35.5843 12.4349 35.401 12.7383C35.2235 13.0418 34.9515 13.2623 34.585 13.3997L35.7618 15.7533H34.3101L33.2623 13.5543H32.326V15.7533H32.3259ZM33.7003 12.4549C33.8949 12.4549 34.0467 12.4062 34.1555 12.3088C34.27 12.2058 34.3273 12.0569 34.3273 11.8622V11.4843C34.3273 11.2895 34.27 11.1435 34.1555 11.0461C34.0467 10.9431 33.8949 10.8915 33.7003 10.8915H32.3259V12.4549H33.7003ZM39.6852 9.75355V13.43C39.6852 13.8537 39.7683 14.1715 39.9343 14.3834C40.1003 14.5895 40.3781 14.6926 40.7675 14.6926C41.1569 14.6926 41.4346 14.5895 41.6008 14.3835C41.7667 14.1715 41.8498 13.8537 41.8498 13.43V9.75355H43.1212V13.2925C43.1212 13.7335 43.0781 14.1172 42.9922 14.4435C42.9121 14.7643 42.7776 15.0305 42.5885 15.2424C42.3996 15.4485 42.1562 15.6032 41.8584 15.7063C41.5607 15.8036 41.197 15.8522 40.7676 15.8522C40.3381 15.8522 39.9744 15.8036 39.6766 15.7063C39.3789 15.6032 39.1355 15.4486 38.9465 15.2424C38.7575 15.0305 38.6201 14.7642 38.5342 14.4435C38.454 14.1172 38.4139 13.7335 38.4139 13.2925V9.75355H39.6852ZM48.201 15.8565C47.6742 15.8565 47.2275 15.7676 46.861 15.5901C46.4946 15.4069 46.1824 15.1721 45.9247 14.8857L46.7837 14.0182C47.1902 14.4763 47.6914 14.7054 48.2869 14.7054C48.6075 14.7054 48.8452 14.6395 48.9998 14.5078C49.1545 14.3761 49.2318 14.2014 49.2318 13.9838C49.2318 13.8177 49.186 13.6803 49.0943 13.5715C49.0027 13.457 48.8166 13.3797 48.536 13.3396L47.9433 13.2623C47.3076 13.1821 46.841 12.9903 46.5431 12.6868C46.2511 12.3833 46.1051 11.9796 46.1051 11.4756C46.1051 11.2065 46.1566 10.9603 46.2597 10.7369C46.3628 10.5135 46.5088 10.3217 46.6977 10.1614C46.8925 10.001 47.1272 9.87792 47.4022 9.79204C47.6828 9.70039 48.0005 9.6546 48.3556 9.6546C48.808 9.6546 49.206 9.72621 49.5495 9.86934C49.8931 10.0125 50.188 10.2215 50.4343 10.4964L49.5667 11.3726C49.4236 11.2065 49.2489 11.0719 49.0428 10.9688C48.8423 10.86 48.5875 10.8057 48.2783 10.8057C47.9862 10.8057 47.7686 10.8571 47.6255 10.9603C47.4824 11.0633 47.4108 11.2064 47.4108 11.3897C47.4108 11.5958 47.4651 11.7448 47.5739 11.8364C47.6884 11.928 47.8717 11.9938 48.1237 12.0339L48.7164 12.1284C49.3348 12.2258 49.7929 12.4176 50.0908 12.704C50.3884 12.9845 50.5374 13.3854 50.5374 13.9065C50.5374 14.1928 50.4859 14.4563 50.3828 14.6968C50.2797 14.9373 50.1279 15.1434 49.9275 15.3152C49.7328 15.487 49.4894 15.6215 49.1974 15.7189C48.9053 15.8106 48.5732 15.8564 48.201 15.8564V15.8565ZM56.2935 10.923V15.759H54.9878V10.923H53.3644V9.76333H57.9169V10.923H56.2935ZM64.8918 15.759L64.4622 14.3331H62.4608L62.0314 15.759H60.7086L62.6842 9.76333H64.2991L66.2489 15.759H64.8918ZM63.4745 10.9487H63.4315L62.7701 13.2249H64.1445L63.4745 10.9487ZM70.8514 12.9531L70.2758 11.7505H70.2499V15.7877H69.0213V9.79204H70.4471L72.088 12.6267L72.6637 13.8292H72.6894V9.79204H73.9175V15.7877H72.4916L70.8514 12.9531ZM80.8699 15.759L80.4406 14.3331H78.4392L78.0097 15.759H76.6871L78.6628 9.76333H80.2778L82.2277 15.759H80.87H80.8699ZM79.4527 10.9487H79.4098L78.7488 13.2249H80.123L79.4527 10.9487ZM26.61 10.9173V15.7533H25.3045V10.9173H23.6809V9.75772H28.2335V10.9173H26.61Z" fill="#201C49"/>
<path fill-rule="evenodd" clip-rule="evenodd" d="M11.7977 4.42764H8.46313V12.7643H8.46321V12.7644H16.7998V9.42969H11.7977V4.42764ZM5.12846 21.1011H8.46313V16.099H8.46321V12.7644H0.126495V16.099H5.12846V21.1011Z" fill="#4142C9"/>
</svg>
